<svg xmlns="http://www.w3.org/2000/svg" version="1.1" xmlns:xlink="http://www.w3.org/1999/xlink" xmlns:svgjs="http://svgjs.com/svgjs" width="1440" height="560" preserveAspectRatio="none" viewBox="0 0 1440 560"><g mask="url(&quot;#SvgjsMask1096&quot;)" fill="none"><rect width="1440" height="560" x="0" y="0" fill="#0e2a47"></rect><path d="M397 125L396 267" stroke-width="8" stroke="url(#SvgjsLinearGradient1097)" stroke-linecap="round" class="Down"></path><path d="M1199 271L1198 483" stroke-width="6" stroke="url(#SvgjsLinearGradient1098)" stroke-linecap="round" class="Up"></path><path d="M618 300L617 539" stroke-width="6" stroke="url(#SvgjsLinearGradient1097)" stroke-linecap="round" class="Down"></path><path d="M107 304L106 710" stroke-width="6" stroke="url(#SvgjsLinearGradient1099)" stroke-linecap="round" class="Down"></path><path d="M770 293L769 103" stroke-width="8" stroke="url(#SvgjsLinearGradient1099)" stroke-linecap="round" class="Down"></path><path d="M1418 139L1417 363" stroke-width="8" stroke="url(#SvgjsLinearGradient1100)" stroke-linecap="round" class="Up"></path><path d="M1301 195L1300 545" stroke-width="6" stroke="url(#SvgjsLinearGradient1098)" stroke-linecap="round" class="Up"></path><path d="M983 430L982 847" stroke-width="10" stroke="url(#SvgjsLinearGradient1097)" stroke-linecap="round" class="Down"></path><path d="M152 15L151 -206" stroke-width="10" stroke="url(#SvgjsLinearGradient1098)" stroke-linecap="round" class="Up"></path><path d="M1135 540L1134 951" stroke-width="10" stroke="url(#SvgjsLinearGradient1101)" stroke-linecap="round" class="Up"></path><path d="M1345 519L1344 301" stroke-width="8" stroke="url(#SvgjsLinearGradient1099)" stroke-linecap="round" class="Down"></path><path d="M159 361L158 651" stroke-width="6" stroke="url(#SvgjsLinearGradient1100)" stroke-linecap="round" class="Up"></path><path d="M1124 251L1123 478" stroke-width="10" stroke="url(#SvgjsLinearGradient1102)" stroke-linecap="round" class="Up"></path><path d="M1288 326L1287 544" stroke-width="6" stroke="url(#SvgjsLinearGradient1098)" stroke-linecap="round" class="Up"></path><path d="M1114 339L1113 687" stroke-width="6" stroke="url(#SvgjsLinearGradient1103)" stroke-linecap="round" class="Down"></path><path d="M1183 502L1182 851" stroke-width="6" stroke="url(#SvgjsLinearGradient1098)" stroke-linecap="round" class="Up"></path><path d="M47 206L46 457" stroke-width="8" stroke="url(#SvgjsLinearGradient1104)" stroke-linecap="round" class="Down"></path><path d="M240 508L239 912" stroke-width="8" stroke="url(#SvgjsLinearGradient1098)" stroke-linecap="round" class="Up"></path><path d="M9 338L8 147" stroke-width="8" stroke="url(#SvgjsLinearGradient1103)" stroke-linecap="round" class="Down"></path><path d="M270 342L269 603" stroke-width="8" stroke="url(#SvgjsLinearGradient1098)" stroke-linecap="round" class="Up"></path><path d="M543 394L542 715" stroke-width="6" stroke="url(#SvgjsLinearGradient1103)" stroke-linecap="round" class="Down"></path><path d="M910 207L909 -49" stroke-width="8" stroke="url(#SvgjsLinearGradient1103)" stroke-linecap="round" class="Down"></path><path d="M1246 509L1245 92" stroke-width="6" stroke="url(#SvgjsLinearGradient1103)" stroke-linecap="round" class="Down"></path><path d="M1097 449L1096 648" stroke-width="6" stroke="url(#SvgjsLinearGradient1098)" stroke-linecap="round" class="Up"></path><path d="M470 425L469 740" stroke-width="8" stroke="url(#SvgjsLinearGradient1098)" stroke-linecap="round" class="Up"></path><path d="M778 471L777 113" stroke-width="6" stroke="url(#SvgjsLinearGradient1103)" stroke-linecap="round" class="Down"></path><path d="M188 336L187 -9" stroke-width="6" stroke="url(#SvgjsLinearGradient1097)" stroke-linecap="round" class="Down"></path><path d="M440 178L439 29" stroke-width="8" stroke="url(#SvgjsLinearGradient1103)" stroke-linecap="round" class="Down"></path><path d="M974 295L973 532" stroke-width="10" stroke="url(#SvgjsLinearGradient1099)" stroke-linecap="round" class="Down"></path><path d="M1105 389L1104 63" stroke-width="6" stroke="url(#SvgjsLinearGradient1097)" stroke-linecap="round" class="Down"></path><path d="M1106 143L1105 336" stroke-width="10" stroke="url(#SvgjsLinearGradient1101)" stroke-linecap="round" class="Up"></path><path d="M346 507L345 772" stroke-width="6" stroke="url(#SvgjsLinearGradient1100)" stroke-linecap="round" class="Up"></path><path d="M1134 140L1133 -207" stroke-width="6" stroke="url(#SvgjsLinearGradient1103)" stroke-linecap="round" class="Down"></path><path d="M771 96L770 372" stroke-width="8" stroke="url(#SvgjsLinearGradient1097)" stroke-linecap="round" class="Down"></path><path d="M321 526L320 149" stroke-width="6" stroke="url(#SvgjsLinearGradient1097)" stroke-linecap="round" class="Down"></path><path d="M671 361L670 31" stroke-width="6" stroke="url(#SvgjsLinearGradient1102)" stroke-linecap="round" class="Up"></path></g><defs><mask id="SvgjsMask1096"><rect width="1440" height="560" fill="#ffffff"></rect></mask><linearGradient x1="0%" y1="0%" x2="0%" y2="100%" id="SvgjsLinearGradient1097"><stop stop-color="rgba(147, 255, 70, 0)" offset="0"></stop><stop stop-color="rgba(147, 255, 70, 1)" offset="1"></stop></linearGradient><linearGradient x1="0%" y1="100%" x2="0%" y2="0%" id="SvgjsLinearGradient1098"><stop stop-color="rgba(147, 255, 70, 0)" offset="0"></stop><stop stop-color="rgba(147, 255, 70, 1)" offset="1"></stop></linearGradient><linearGradient x1="0%" y1="0%" x2="0%" y2="100%" id="SvgjsLinearGradient1099"><stop stop-color="rgba(2, 255, 56, 0)" offset="0"></stop><stop stop-color="rgba(2, 255, 56, 1)" offset="1"></stop></linearGradient><linearGradient x1="0%" y1="100%" x2="0%" y2="0%" id="SvgjsLinearGradient1100"><stop stop-color="rgba(2, 255, 56, 0)" offset="0"></stop><stop stop-color="rgba(2, 255, 56, 1)" offset="1"></stop></linearGradient><linearGradient x1="0%" y1="100%" x2="0%" y2="0%" id="SvgjsLinearGradient1101"><stop stop-color="rgba(255, 44, 44, 0)" offset="0"></stop><stop stop-color="rgba(255, 44, 44, 1)" offset="1"></stop></linearGradient><linearGradient x1="0%" y1="100%" x2="0%" y2="0%" id="SvgjsLinearGradient1102"><stop stop-color="rgba(247, 0, 183, 0)" offset="0"></stop><stop stop-color="rgba(247, 0, 183, 1)" offset="1"></stop></linearGradient><linearGradient x1="0%" y1="0%" x2="0%" y2="100%" id="SvgjsLinearGradient1103"><stop stop-color="rgba(255, 44, 44, 0)" offset="0"></stop><stop stop-color="rgba(255, 44, 44, 1)" offset="1"></stop></linearGradient><linearGradient x1="0%" y1="0%" x2="0%" y2="100%" id="SvgjsLinearGradient1104"><stop stop-color="rgba(247, 0, 183, 0)" offset="0"></stop><stop stop-color="rgba(247, 0, 183, 1)" offset="1"></stop></linearGradient></defs></svg>