<svg width="1390" height="2921" viewBox="0 0 1390 2921" fill="none" xmlns="http://www.w3.org/2000/svg">
<circle cx="390" cy="248" r="248" fill="#5EBBFF" fill-opacity="0.6"/>
<ellipse cx="135" cy="2637.5" rx="284" ry="283.5" fill="#5EBBFF" fill-opacity="0.6"/>
<ellipse cx="135" cy="2637.5" rx="284" ry="283.5" fill="#5EBBFF" fill-opacity="0.6"/>
<ellipse cx="135" cy="2637.5" rx="284" ry="283.5" fill="#5EBBFF" fill-opacity="0.6"/>
<ellipse cx="135" cy="2637.5" rx="284" ry="283.5" fill="#5EBBFF" fill-opacity="0.6"/>
<ellipse cx="1106" cy="941.5" rx="284" ry="283.5" fill="#EE1111" fill-opacity="0.51"/>
<ellipse cx="1042" cy="2220.5" rx="284" ry="283.5" fill="#D2FF51"/>
<ellipse cx="1042" cy="2220.5" rx="284" ry="283.5" fill="#D2FF51"/>
<ellipse cx="395" cy="1636.5" rx="284" ry="283.5" fill="#FC39E8"/>
<ellipse cx="1074" cy="298" rx="48" ry="41" fill="#FC39E8"/>
<ellipse cx="135" cy="810" rx="48" ry="41" fill="#D2FF51"/>
<ellipse cx="672" cy="1207" rx="48" ry="41" fill="#5EBBFF" fill-opacity="0.6"/>
<ellipse cx="159" cy="2180" rx="48" ry="41" fill="#D2FF51"/>
<ellipse cx="159" cy="2180" rx="48" ry="41" fill="#D2FF51"/>
<ellipse cx="679" cy="2538" rx="48" ry="41" fill="#EE1111" fill-opacity="0.51"/>
<ellipse cx="679" cy="2538" rx="48" ry="41" fill="#EE1111" fill-opacity="0.51"/>
<ellipse cx="967" cy="370.5" rx="14" ry="10.5" fill="#EE1111" fill-opacity="0.51"/>
<ellipse cx="197" cy="758.5" rx="14" ry="10.5" fill="#FC39E8"/>
<ellipse cx="211" cy="1235.5" rx="14" ry="10.5" fill="#D9D9D9"/>
<ellipse cx="736" cy="1272.5" rx="14" ry="10.5" fill="#D9D9D9"/>
<ellipse cx="1196" cy="1510.5" rx="14" ry="10.5" fill="#D9D9D9"/>
<ellipse cx="491" cy="2034.5" rx="14" ry="10.5" fill="#D9D9D9"/>
<ellipse cx="97" cy="2231.5" rx="14" ry="10.5" fill="#EE1111" fill-opacity="0.51"/>
<ellipse cx="173" cy="2242.5" rx="14" ry="10.5" fill="#5EBBFF" fill-opacity="0.6"/>
<ellipse cx="734" cy="2410.5" rx="14" ry="10.5" fill="#FC39E8"/>
</svg>
