<svg width="270" height="43" viewBox="0 0 270 43" fill="none" xmlns="http://www.w3.org/2000/svg">
<rect x="0.5" y="0.5" width="269" height="42" rx="9.5" fill="white" stroke="black"/>
<path d="M18.25 28.25C20.2469 28.2496 22.1862 27.5811 23.7591 26.351L28.7046 31.2965L30.2954 29.7058L25.3499 24.7603C26.5806 23.1871 27.2495 21.2474 27.25 19.25C27.25 14.2876 23.2124 10.25 18.25 10.25C13.2876 10.25 9.25 14.2876 9.25 19.25C9.25 24.2124 13.2876 28.25 18.25 28.25ZM18.25 12.5C21.9726 12.5 25 15.5274 25 19.25C25 22.9726 21.9726 26 18.25 26C14.5274 26 11.5 22.9726 11.5 19.25C11.5 15.5274 14.5274 12.5 18.25 12.5Z" fill="black"/>
<path d="M19.8386 17.6592C20.2649 18.0867 20.5001 18.6515 20.5001 19.25H22.7501C22.751 18.6587 22.6348 18.0731 22.4081 17.527C22.1814 16.9809 21.8488 16.4852 21.4293 16.0685C19.7261 14.3675 16.7729 14.3675 15.0708 16.0685L16.6593 17.6615C17.5143 16.8087 18.9881 16.811 19.8386 17.6592Z" fill="black"/>
<path d="M37.564 29V28.232H38.692V12.968H37.564V12.2H42.112C42.576 12.2 43.024 12.268 43.456 12.404C43.896 12.54 44.292 12.76 44.644 13.064C44.996 13.36 45.276 13.752 45.484 14.24C45.692 14.728 45.796 15.32 45.796 16.016C45.796 16.696 45.704 17.284 45.52 17.78C45.336 18.276 45.096 18.688 44.8 19.016C44.504 19.344 44.192 19.596 43.864 19.772C43.536 19.948 43.228 20.056 42.94 20.096C43.236 20.104 43.564 20.184 43.924 20.336C44.292 20.48 44.644 20.716 44.98 21.044C45.324 21.364 45.604 21.788 45.82 22.316C46.044 22.844 46.156 23.492 46.156 24.26C46.156 25.332 45.98 26.22 45.628 26.924C45.284 27.62 44.832 28.14 44.272 28.484C43.72 28.828 43.128 29 42.496 29H37.564ZM41.176 28.232H41.932C42.196 28.232 42.448 28.088 42.688 27.8C42.936 27.512 43.136 27.076 43.288 26.492C43.448 25.908 43.528 25.168 43.528 24.272C43.528 23.288 43.44 22.524 43.264 21.98C43.096 21.428 42.88 21.044 42.616 20.828C42.36 20.612 42.1 20.504 41.836 20.504H41.176V28.232ZM41.176 19.724H41.836C42.124 19.724 42.376 19.604 42.592 19.364C42.808 19.124 42.976 18.736 43.096 18.2C43.224 17.656 43.288 16.928 43.288 16.016C43.288 15.184 43.212 14.552 43.06 14.12C42.908 13.68 42.716 13.38 42.484 13.22C42.26 13.052 42.028 12.968 41.788 12.968H41.176V19.724ZM50.9483 29.264C50.4523 29.264 49.9963 29.168 49.5803 28.976C49.1723 28.776 48.8443 28.408 48.5963 27.872C48.3563 27.328 48.2363 26.544 48.2363 25.52V17.204H47.0603V16.448H50.7563V25.244C50.7563 26.02 50.7883 26.616 50.8523 27.032C50.9163 27.44 51.0163 27.724 51.1523 27.884C51.2963 28.036 51.4723 28.112 51.6803 28.112C51.9283 28.112 52.1443 27.984 52.3283 27.728C52.5203 27.472 52.6683 27.12 52.7723 26.672C52.8763 26.224 52.9283 25.716 52.9283 25.148V17.204H51.8483V16.448H55.4483V28.232H56.4803V29H53.1923L53.0723 27.692C53.0243 27.9 52.9123 28.128 52.7363 28.376C52.5683 28.616 52.3323 28.824 52.0283 29C51.7323 29.176 51.3723 29.264 50.9483 29.264ZM60.3104 29.264C59.8784 29.264 59.5384 29.208 59.2904 29.096C59.0504 28.984 58.8584 28.872 58.7144 28.76C58.5784 28.648 58.4504 28.592 58.3304 28.592C58.2264 28.592 58.1544 28.628 58.1144 28.7C58.0744 28.764 58.0504 28.864 58.0424 29H57.3584V25.196H58.1744C58.2144 25.644 58.2904 26.068 58.4024 26.468C58.5224 26.86 58.6704 27.208 58.8464 27.512C59.0224 27.816 59.2304 28.056 59.4704 28.232C59.7184 28.408 59.9904 28.496 60.2864 28.496C60.5664 28.496 60.7904 28.432 60.9584 28.304C61.1344 28.176 61.2624 28.008 61.3424 27.8C61.4224 27.584 61.4624 27.352 61.4624 27.104C61.4624 26.744 61.3904 26.388 61.2464 26.036C61.1024 25.676 60.8904 25.312 60.6104 24.944C60.3384 24.568 60.0104 24.18 59.6264 23.78C59.0024 23.124 58.4744 22.456 58.0424 21.776C57.6184 21.088 57.4064 20.26 57.4064 19.292C57.4064 18.596 57.5424 18.028 57.8144 17.588C58.0864 17.148 58.4344 16.824 58.8584 16.616C59.2904 16.408 59.7424 16.304 60.2144 16.304C60.5584 16.304 60.8344 16.348 61.0424 16.436C61.2504 16.524 61.4184 16.612 61.5464 16.7C61.6744 16.788 61.7864 16.832 61.8824 16.832C61.9544 16.832 62.0064 16.804 62.0384 16.748C62.0784 16.684 62.1024 16.58 62.1104 16.436H62.8184V20.132H62.0024C61.9704 19.732 61.9104 19.348 61.8224 18.98C61.7424 18.612 61.6304 18.288 61.4864 18.008C61.3424 17.72 61.1664 17.496 60.9584 17.336C60.7584 17.168 60.5224 17.084 60.2504 17.084C59.8744 17.084 59.5824 17.228 59.3744 17.516C59.1664 17.796 59.0624 18.144 59.0624 18.56C59.0624 19.048 59.2184 19.516 59.5304 19.964C59.8504 20.404 60.2904 20.904 60.8504 21.464C61.2824 21.912 61.6704 22.368 62.0144 22.832C62.3664 23.288 62.6424 23.78 62.8424 24.308C63.0504 24.836 63.1544 25.424 63.1544 26.072C63.1544 26.784 63.0344 27.38 62.7944 27.86C62.5624 28.332 62.2304 28.684 61.7984 28.916C61.3744 29.148 60.8784 29.264 60.3104 29.264ZM68.3136 29.252C67.7456 29.252 67.2216 29.092 66.7416 28.772C66.2696 28.452 65.8536 28 65.4936 27.416C65.1416 26.824 64.8656 26.124 64.6656 25.316C64.4736 24.508 64.3776 23.616 64.3776 22.64C64.3776 21.52 64.5056 20.56 64.7616 19.76C65.0256 18.952 65.3616 18.296 65.7696 17.792C66.1776 17.28 66.6136 16.904 67.0776 16.664C67.5496 16.424 67.9896 16.304 68.3976 16.304C68.9736 16.304 69.4656 16.46 69.8736 16.772C70.2896 17.084 70.6056 17.492 70.8216 17.996C71.0456 18.5 71.1576 19.036 71.1576 19.604C71.1576 20.068 71.0616 20.424 70.8696 20.672C70.6856 20.92 70.4456 21.044 70.1496 21.044C69.8376 21.044 69.5856 20.94 69.3936 20.732C69.2016 20.516 69.1056 20.228 69.1056 19.868C69.1056 19.628 69.1496 19.432 69.2376 19.28C69.3256 19.128 69.4136 18.976 69.5016 18.824C69.5896 18.672 69.6336 18.492 69.6336 18.284C69.6336 17.892 69.5256 17.596 69.3096 17.396C69.1016 17.196 68.8496 17.096 68.5536 17.096C68.2416 17.096 67.9856 17.268 67.7856 17.612C67.5856 17.956 67.4256 18.404 67.3056 18.956C67.1936 19.5 67.1136 20.092 67.0656 20.732C67.0256 21.364 67.0056 21.972 67.0056 22.556C67.0056 23.204 67.0296 23.872 67.0776 24.56C67.1256 25.24 67.2096 25.872 67.3296 26.456C67.4576 27.032 67.6336 27.5 67.8576 27.86C68.0896 28.22 68.3856 28.4 68.7456 28.4C69.2016 28.4 69.5576 28.264 69.8136 27.992C70.0696 27.72 70.2536 27.412 70.3656 27.068L70.9536 27.56C70.7936 27.976 70.4936 28.364 70.0536 28.724C69.6216 29.076 69.0416 29.252 68.3136 29.252ZM75.0475 29.252C74.5355 29.252 74.0715 29.132 73.6555 28.892C73.2395 28.644 72.9075 28.284 72.6595 27.812C72.4195 27.34 72.2995 26.768 72.2995 26.096C72.2995 25.336 72.4555 24.708 72.7675 24.212C73.0795 23.716 73.4635 23.3 73.9195 22.964C74.3835 22.62 74.8435 22.316 75.2995 22.052C75.7635 21.78 76.1515 21.496 76.4635 21.2C76.7755 20.904 76.9315 20.544 76.9315 20.12C76.9315 19.528 76.8835 19.012 76.7875 18.572C76.6915 18.132 76.5395 17.792 76.3315 17.552C76.1315 17.304 75.8635 17.18 75.5275 17.18C75.1435 17.18 74.8235 17.296 74.5675 17.528C74.3115 17.76 74.1835 18.032 74.1835 18.344C74.1835 18.544 74.2235 18.716 74.3035 18.86C74.3835 18.996 74.4595 19.14 74.5315 19.292C74.6035 19.436 74.6395 19.636 74.6395 19.892C74.6395 20.244 74.5475 20.524 74.3635 20.732C74.1795 20.94 73.9315 21.044 73.6195 21.044C73.2995 21.044 73.0475 20.908 72.8635 20.636C72.6795 20.364 72.5875 19.992 72.5875 19.52C72.5875 18.912 72.7315 18.364 73.0195 17.876C73.3155 17.388 73.7195 17.004 74.2315 16.724C74.7515 16.444 75.3435 16.304 76.0075 16.304C76.6795 16.304 77.2715 16.448 77.7835 16.736C78.3035 17.016 78.7115 17.468 79.0075 18.092C79.3035 18.708 79.4515 19.52 79.4515 20.528V27.236C79.4515 27.62 79.4875 27.88 79.5595 28.016C79.6315 28.144 79.7395 28.208 79.8835 28.208C80.0195 28.208 80.1355 28.176 80.2315 28.112C80.3355 28.04 80.4115 27.976 80.4595 27.92L80.8915 28.544C80.7715 28.696 80.5435 28.844 80.2075 28.988C79.8795 29.124 79.4875 29.192 79.0315 29.192C78.5995 29.192 78.2475 29.128 77.9755 29C77.7115 28.872 77.5115 28.712 77.3755 28.52C77.2475 28.32 77.1675 28.12 77.1355 27.92C77.0955 28.048 77.0035 28.22 76.8595 28.436C76.7155 28.644 76.4955 28.832 76.1995 29C75.9115 29.168 75.5275 29.252 75.0475 29.252ZM75.8515 28.076C76.0755 28.076 76.2675 27.984 76.4275 27.8C76.5875 27.616 76.7115 27.388 76.7995 27.116C76.8875 26.844 76.9315 26.58 76.9315 26.324V21.632C76.9075 21.856 76.7875 22.076 76.5715 22.292C76.3635 22.5 76.1275 22.748 75.8635 23.036C75.5995 23.324 75.3675 23.688 75.1675 24.128C74.9755 24.568 74.8795 25.124 74.8795 25.796C74.8795 26.54 74.9635 27.108 75.1315 27.5C75.2995 27.884 75.5395 28.076 75.8515 28.076ZM81.1516 29V28.232H82.3876V17.204H81.1516V16.436H84.7156L84.8356 17.6C84.8676 17.488 84.9596 17.328 85.1116 17.12C85.2636 16.912 85.4676 16.724 85.7236 16.556C85.9796 16.388 86.2756 16.304 86.6116 16.304C87.0516 16.304 87.4116 16.452 87.6916 16.748C87.9796 17.036 88.1956 17.424 88.3396 17.912C88.4836 18.4 88.5556 18.944 88.5556 19.544C88.5556 20.032 88.4636 20.404 88.2796 20.66C88.0956 20.916 87.8436 21.044 87.5236 21.044C87.2276 21.044 86.9876 20.936 86.8036 20.72C86.6276 20.496 86.5396 20.192 86.5396 19.808C86.5396 19.552 86.5876 19.344 86.6836 19.184C86.7796 19.024 86.8716 18.868 86.9596 18.716C87.0556 18.556 87.1036 18.356 87.1036 18.116C87.1036 17.796 87.0436 17.56 86.9236 17.408C86.8116 17.256 86.6396 17.18 86.4076 17.18C86.1516 17.18 85.9076 17.304 85.6756 17.552C85.4436 17.8 85.2556 18.144 85.1116 18.584C84.9756 19.024 84.9076 19.532 84.9076 20.108V28.232H86.1436V29H81.1516Z" fill="black"/>
</svg>
