<svg xmlns="http://www.w3.org/2000/svg" version="1.1" xmlns:xlink="http://www.w3.org/1999/xlink" xmlns:svgjs="http://svgjs.com/svgjs" width="1440" height="560" preserveAspectRatio="none" viewBox="0 0 1440 560"><g mask="url(&quot;#SvgjsMask1016&quot;)" fill="none"><rect width="1440" height="560" x="0" y="0" fill="rgba(94, 116, 117, 0.99)"></rect><path d="M148.229,311.606C184.124,312.263,214.165,287.071,231.791,255.795C249.067,225.141,254.214,186.942,235.154,157.364C217.279,129.625,181.217,125.227,148.229,126.121C117.22,126.962,85.426,135.488,69.101,161.865C51.997,189.499,54.621,224.094,69.805,252.828C86.164,283.785,113.221,310.965,148.229,311.606" fill="rgba(255, 255, 255, 0.4)" class="triangle-float2"></path><path d="M761.832,363.416C779.751,362.463,790.19,344.839,798.217,328.791C805.199,314.834,808.27,298.983,800.959,285.195C793.186,270.535,778.424,260.325,761.832,260.169C744.986,260.01,730.081,270.002,721.407,284.445C712.445,299.369,710.128,317.561,718.06,333.057C726.732,349.998,742.827,364.427,761.832,363.416" fill="rgba(255, 255, 255, 0.4)" class="triangle-float1"></path><path d="M1028.67,682.266C1071.873,682.326,1103.225,645.089,1123.104,606.731C1141.198,571.818,1142.621,531.758,1124.853,496.678C1105.025,457.529,1072.543,421.279,1028.67,420.281C983.502,419.254,944.956,451.79,924.598,492.123C906.119,528.734,915,570.494,934.69,606.468C955.4,644.306,985.535,682.206,1028.67,682.266" fill="rgba(255, 255, 255, 0.4)" class="triangle-float3"></path><path d="M411.778,552.272C443.634,554.009,476.947,545.233,494.476,518.577C513.645,489.426,517.279,450.138,498.106,420.989C480.28,393.887,444.217,392.714,411.778,392.849C379.678,392.983,342.843,393.966,326.688,421.705C310.473,449.547,325.764,483.341,343.356,510.335C359.01,534.355,383.15,550.711,411.778,552.272" fill="rgba(255, 255, 255, 0.4)" class="triangle-float1"></path><path d="M687.336,424.43C707.063,423.746,719.298,404.675,727.885,386.902C735.187,371.788,736.55,354.46,728.167,339.917C719.774,325.357,704.129,317.22,687.336,316.556C669.172,315.838,650.124,321.028,640.505,336.453C630.4,352.658,632.63,373.036,641.603,389.894C651.223,407.967,666.874,425.14,687.336,424.43" fill="rgba(255, 255, 255, 0.4)" class="triangle-float1"></path><path d="M160.309,440.699C218.552,440.063,262.821,395.558,292.703,345.562C323.603,293.863,344.655,232.169,316.89,178.722C287.307,121.775,224.304,85.924,160.309,90.705C102.43,95.029,66.92,148.226,39.606,199.437C14.384,246.727,-1.172,300.578,22.808,348.51C49.27,401.404,101.169,441.345,160.309,440.699" fill="rgba(255, 255, 255, 0.4)" class="triangle-float3"></path><path d="M236.191,455.54C293.096,454.425,351.916,442.481,383.644,395.229C419.019,342.546,428.277,272.461,395.678,218.017C363.781,164.745,298.085,144.02,236.191,148.965C182.26,153.274,144.172,194.537,115.477,240.403C84.205,290.387,49.526,349.791,78.377,401.21C107.556,453.212,176.573,456.708,236.191,455.54" fill="rgba(255, 255, 255, 0.4)" class="triangle-float1"></path><path d="M1441.116,605.441C1486.718,605.467,1536.294,596.887,1559.457,557.606C1582.885,517.876,1569.855,468.155,1544.969,429.322C1522.19,393.777,1483.334,372.919,1441.116,372.942C1398.94,372.965,1360.196,393.913,1337.46,429.436C1312.644,468.207,1299.646,517.807,1323.006,557.472C1346.118,596.716,1395.572,605.415,1441.116,605.441" fill="rgba(255, 255, 255, 0.4)" class="triangle-float2"></path><path d="M183.562,177.682C224.936,176.231,264.227,157.556,285.067,121.785C306.045,85.777,304.365,41.549,284.081,5.146C263.215,-32.302,226.43,-60.03,183.562,-60.381C140.142,-60.736,102.607,-33.687,80.154,3.478C56.806,42.125,45.884,90.535,68.932,129.362C91.618,167.579,139.146,179.239,183.562,177.682" fill="rgba(255, 255, 255, 0.4)" class="triangle-float3"></path><path d="M1134.901,335.762C1164.384,334.833,1190.316,317.139,1204.437,291.241C1217.961,266.437,1217.207,236.179,1202.274,212.197C1188.138,189.495,1161.645,179.546,1134.901,179.57C1108.206,179.594,1082.55,190.109,1067.738,212.318C1051.046,237.347,1042.955,269.453,1057.333,295.879C1072.225,323.251,1103.755,336.744,1134.901,335.762" fill="rgba(255, 255, 255, 0.4)" class="triangle-float1"></path><path d="M110.154,165.009C139.646,165.354,169.285,154.071,184.284,128.676C199.511,102.895,196.485,70.603,181.078,44.929C166.129,20.018,139.199,4.51,110.154,5.149C82.145,5.765,58.57,23.746,44.436,47.935C30.156,72.375,25.116,102.291,38.971,126.974C53.085,152.118,81.322,164.671,110.154,165.009" fill="rgba(255, 255, 255, 0.4)" class="triangle-float3"></path><path d="M303.291,504.234C332.402,503.292,361.135,494.242,377.278,469.999C395.346,442.865,403.329,407.161,386.53,379.224C370.094,351.89,335.181,347.491,303.291,346.952C270.064,346.391,233.068,348.414,215.034,376.327C195.861,406.004,200.454,445.989,220.52,475.07C238.326,500.876,271.954,505.248,303.291,504.234" fill="rgba(255, 255, 255, 0.4)" class="triangle-float2"></path><path d="M799.182,373.65C852.781,374.863,906.938,348.236,929.776,299.73C950.395,255.936,922.854,208.68,895.731,168.588C872.772,134.651,840.156,106.837,799.182,106.689C757.975,106.54,723.739,133.249,701.417,167.886C676.599,206.395,658.778,252.662,678.439,294.042C700.613,340.711,747.526,372.481,799.182,373.65" fill="rgba(255, 255, 255, 0.4)" class="triangle-float3"></path><path d="M1155.32,509.167C1190.583,510.071,1217.44,479.62,1232.67,447.802C1245.851,420.264,1240.352,389.3,1225.45,362.654C1210.104,335.215,1186.746,310.386,1155.32,309.499C1122.625,308.577,1093.214,329.548,1077.983,358.493C1063.715,385.609,1070.552,416.746,1084.544,444.006C1100.239,474.583,1120.961,508.287,1155.32,509.167" fill="rgba(255, 255, 255, 0.4)" class="triangle-float2"></path><path d="M890.264,242.028C925.023,242.07,958.024,224.122,974.642,193.593C990.616,164.247,984.001,129.339,967.381,100.354C950.659,71.19,923.881,46.636,890.264,46.435C856.36,46.232,828.364,69.989,811.535,99.423C794.845,128.613,789.99,163.952,806.241,193.388C823.005,223.753,855.579,241.986,890.264,242.028" fill="rgba(255, 255, 255, 0.4)" class="triangle-float3"></path><path d="M673.805,243.352C712.344,243.081,750.372,230.005,771.612,197.846C795.206,162.122,804.354,115.438,782.668,78.525C761.198,41.978,716.187,32.016,673.805,31.358C629.899,30.676,581.431,37.346,558.923,75.05C536.023,113.411,548.401,162.338,573.588,199.237C595.643,231.547,634.686,243.627,673.805,243.352" fill="rgba(255, 255, 255, 0.4)" class="triangle-float3"></path><path d="M1046.992,377.052C1099.821,380.341,1154.074,359.515,1181.048,313.973C1208.466,267.682,1201.834,209.268,1173.434,163.574C1146.597,120.395,1097.826,97.507,1046.992,98.285C997.561,99.042,950.509,123.811,927.082,167.345C904.718,208.905,915.605,257.935,939.032,298.905C962.667,340.239,999.47,374.093,1046.992,377.052" fill="rgba(255, 255, 255, 0.4)" class="triangle-float2"></path></g><defs><mask id="SvgjsMask1016"><rect width="1440" height="560" fill="#ffffff"></rect></mask><style>
            @keyframes float1 {
                0%{transform: translate(0, 0)}
                50%{transform: translate(-10px, 0)}
                100%{transform: translate(0, 0)}
            }

            .triangle-float1 {
                animation: float1 5s infinite;
            }

            @keyframes float2 {
                0%{transform: translate(0, 0)}
                50%{transform: translate(-5px, -5px)}
                100%{transform: translate(0, 0)}
            }

            .triangle-float2 {
                animation: float2 4s infinite;
            }

            @keyframes float3 {
                0%{transform: translate(0, 0)}
                50%{transform: translate(0, -10px)}
                100%{transform: translate(0, 0)}
            }

            .triangle-float3 {
                animation: float3 6s infinite;
            }
        </style></defs></svg>